<?xml version="1.0" encoding="utf-8"?>
<!-- Generator: Adobe Illustrator 22.0.1, SVG Export Plug-In . SVG Version: 6.00 Build 0)  -->
<svg version="1.1" id="Layer_1" xmlns="http://www.w3.org/2000/svg" xmlns:xlink="http://www.w3.org/1999/xlink" x="0px" y="0px"
	 viewBox="0 0 370.2 371.3" style="enable-background:new 0 0 370.2 371.3;" xml:space="preserve">
<style type="text/css">
	.st0{fill:none;stroke:#000000;stroke-width:12.0111;stroke-miterlimit:10;}
	.st1{fill:none;stroke:#000000;stroke-width:14.7144;stroke-miterlimit:10;}
</style>
<line class="st0" x1="-98.9" y1="184.3" x2="161" y2="-108.2"/>
<line class="st0" x1="-79.4" y1="212.1" x2="180.5" y2="-80.4"/>
<line class="st0" x1="-60.8" y1="238.6" x2="199.1" y2="-53.9"/>
<line class="st0" x1="-39.4" y1="269.1" x2="220.5" y2="-23.4"/>
<line class="st1" x1="-48.8" y1="352.2" x2="341.3" y2="-86.9"/>
<line class="st1" x1="-31.9" y1="382.8" x2="358.2" y2="-56.2"/>
<line class="st1" x1="-15.7" y1="412.2" x2="374.3" y2="-26.9"/>
<line class="st1" x1="2.8" y1="445.9" x2="392.9" y2="6.9"/>
<line class="st1" x1="64.9" y1="457.5" x2="455" y2="18.5"/>
<line class="st1" x1="81.8" y1="488.2" x2="471.9" y2="49.1"/>
<line class="st1" x1="98" y1="517.5" x2="488.1" y2="78.5"/>
<line class="st1" x1="116.5" y1="551.2" x2="506.6" y2="112.2"/>
<line class="st0" x1="174.9" y1="454.9" x2="-117.7" y2="195"/>
<line class="st0" x1="202.6" y1="435.4" x2="-89.9" y2="175.5"/>
<line class="st0" x1="229.2" y1="416.8" x2="-63.4" y2="156.8"/>
<line class="st0" x1="259.7" y1="395.3" x2="-32.9" y2="135.4"/>
<line class="st1" x1="342.7" y1="404.7" x2="-96.3" y2="14.6"/>
<line class="st1" x1="373.4" y1="387.8" x2="-65.7" y2="-2.2"/>
<line class="st1" x1="402.7" y1="371.7" x2="-36.3" y2="-18.4"/>
<line class="st1" x1="436.4" y1="353.1" x2="-2.6" y2="-37"/>
<line class="st1" x1="448" y1="291" x2="9" y2="-99.1"/>
<line class="st1" x1="478.7" y1="274.1" x2="39.7" y2="-116"/>
<line class="st1" x1="508" y1="258" x2="69" y2="-132.1"/>
<line class="st1" x1="541.7" y1="239.4" x2="102.7" y2="-150.7"/>
</svg>
